<svg xmlns="http://www.w3.org/2000/svg" xmlns:xlink="http://www.w3.org/1999/xlink" viewBox="0 0 1200 1200"><defs><style>.cls-1{isolation:isolate;}.cls-13,.cls-18,.cls-19,.cls-2,.cls-20,.cls-21,.cls-23{fill:none;}.cls-3{fill:#ededf4;}.cls-4{fill:#df7ba7;}.cls-5{fill:#231e54;}.cls-6{fill:#18161f;}.cls-7{fill:#262432;}.cls-8{fill:#1a4b96;}.cls-22,.cls-9{fill:#f184b4;}.cls-10{fill:#f184b5;}.cls-11,.cls-24{fill:#ecec9d;}.cls-12,.cls-16{fill:#1a4b98;}.cls-12,.cls-13,.cls-22,.cls-23,.cls-24,.cls-26,.cls-27,.cls-28,.cls-29,.cls-30,.cls-31,.cls-32,.cls-33,.cls-34,.cls-35,.cls-40,.cls-41{fill-rule:evenodd;}.cls-13,.cls-18{stroke:#1a4b98;}.cls-13,.cls-19,.cls-20,.cls-21,.cls-23{stroke-miterlimit:10;}.cls-13{stroke-width:5px;}.cls-14{fill:#f485b7;}.cls-15{fill:#fdd24c;}.cls-17{fill:#0d096c;}.cls-18{stroke-linecap:round;stroke-linejoin:round;stroke-width:10px;}.cls-19,.cls-20,.cls-21{stroke:#f184b4;}.cls-19{stroke-width:3.72px;}.cls-20{stroke-width:8.12px;}.cls-21{stroke-width:7.49px;}.cls-23{stroke:#ecec9d;stroke-width:12.77px;}.cls-25{mix-blend-mode:soft-light;}.cls-26{fill:url(#linear-gradient);}.cls-27{fill:url(#linear-gradient-2);}.cls-28{fill:url(#linear-gradient-3);}.cls-29{fill:url(#linear-gradient-4);}.cls-30{fill:url(#linear-gradient-5);}.cls-31{fill:url(#linear-gradient-6);}.cls-32{fill:url(#linear-gradient-7);}.cls-33{fill:url(#linear-gradient-8);}.cls-34{fill:url(#linear-gradient-9);}.cls-35{fill:url(#linear-gradient-10);}.cls-36{fill:url(#linear-gradient-11);}.cls-37{fill:url(#linear-gradient-12);}.cls-38{fill:url(#linear-gradient-13);}.cls-39{fill:url(#linear-gradient-14);}.cls-40{fill:url(#linear-gradient-15);}.cls-41{fill:url(#linear-gradient-16);}</style><linearGradient id="linear-gradient" x1="283.65" y1="657.06" x2="669.24" y2="657.06" gradientUnits="userSpaceOnUse"><stop offset="0" stop-color="#d979d2"/><stop offset="1" stop-color="#50bf80"/></linearGradient><linearGradient id="linear-gradient-2" x1="129.12" y1="758.75" x2="489.71" y2="758.75" xlink:href="#linear-gradient"/><linearGradient id="linear-gradient-3" x1="676.92" y1="533.14" x2="905.25" y2="533.14" xlink:href="#linear-gradient"/><linearGradient id="linear-gradient-4" x1="321.96" y1="702.85" x2="367.34" y2="702.85" xlink:href="#linear-gradient"/><linearGradient id="linear-gradient-5" x1="798.36" y1="446.18" x2="843.75" y2="446.18" xlink:href="#linear-gradient"/><linearGradient id="linear-gradient-6" x1="497.4" y1="606.86" x2="1106.76" y2="606.86" xlink:href="#linear-gradient"/><linearGradient id="linear-gradient-7" x1="555.39" y1="408.67" x2="686.22" y2="408.67" xlink:href="#linear-gradient"/><linearGradient id="linear-gradient-8" x1="701.08" y1="353.61" x2="751.45" y2="353.61" xlink:href="#linear-gradient"/><linearGradient id="linear-gradient-9" x1="404.12" y1="778.75" x2="534.95" y2="778.75" xlink:href="#linear-gradient"/><linearGradient id="linear-gradient-10" x1="555.39" y1="722.71" x2="598.93" y2="722.71" xlink:href="#linear-gradient"/><linearGradient id="linear-gradient-11" x1="301.49" y1="447.47" x2="340.53" y2="447.47" gradientTransform="translate(240.2 -97.27) rotate(27.22)" xlink:href="#linear-gradient"/><linearGradient id="linear-gradient-12" x1="812.38" y1="671.45" x2="851.41" y2="671.45" gradientTransform="translate(399.2 -306.13) rotate(27.22)" xlink:href="#linear-gradient"/><linearGradient id="linear-gradient-13" x1="415.62" y1="322.05" x2="500.7" y2="322.05" gradientTransform="translate(198.01 -173.88) rotate(27.22)" xlink:href="#linear-gradient"/><linearGradient id="linear-gradient-14" x1="540.61" y1="867.63" x2="619.14" y2="867.63" gradientTransform="translate(460.95 -169.14) rotate(27.21)" xlink:href="#linear-gradient"/><linearGradient id="linear-gradient-15" x1="288.59" y1="896.71" x2="415.11" y2="896.71" xlink:href="#linear-gradient"/><linearGradient id="linear-gradient-16" x1="812.08" y1="253.33" x2="938.6" y2="253.33" xlink:href="#linear-gradient"/></defs><g class="cls-1"><g id="Layer_1" data-name="Layer 1"><rect class="cls-2" width="1200" height="1200"/><path class="cls-3" d="M85.46,807.19c-24.89-62.92-9.86-144.94,47.4-181,24-15.12,54.55-22.44,70.81-45.69,36.11-57.41-33.51-161.18-24.74-235.93-3.82-126.83,41-183.33,196-194.45S630,232,665.16,252.52c77.12,45,177.46-2.92,263.64,20.49,76.62,20.82,130.49,104.37,117.83,182.75-10.32,63.89-58.44,122.85-45.71,186.3,33.76,115.81,218.12,175.19,65.59,312.09-79.77,56.36-183.48,36.91-275.34,42.17-65.94,4-130.26,21.06-194.81,35.08-131.17,35-276.68,30.2-370.75-78.32C173.4,904.8,113.52,878.13,85.46,807.19Z"/><path class="cls-4" d="M218.17,971.64l10.44-.13a3.28,3.28,0,0,1,3.29,3.35l.48,25.63-16.56,2.56-1.45-27.15a4,4,0,0,1,3.8-4.26"/><path class="cls-5" d="M215.45,996.43l-1.85,15.87,57.34,1.37c1.79-13.93-38.44-16.81-38.44-16.81l-17.05-.43Z"/><path class="cls-4" d="M141.1,970.88l10.15,2a3.15,3.15,0,0,1,2.37,4L147.75,1002l-16.69-.9,5.3-26.88a4.22,4.22,0,0,1,4.74-3.38"/><path class="cls-5" d="M132.11,995.65l-3,15.81,57.14,3c2.79-13.87-37.16-17.93-37.16-17.93l-17-.93Z"/><polygon class="cls-6" points="246.47 983.06 201.46 983.7 194.06 816.54 193.22 700.09 244.9 699.36 247.63 847.41 246.47 983.06 246.47 983.06"/><polygon class="cls-7" points="175 983.51 129.84 983.51 138.23 851.62 138.45 850.67 144.43 699.81 195.7 699.81 193.87 813.15 175 983.51 175 983.51"/><path class="cls-8" d="M172.15,507.19l18.16-3.74a22.22,22.22,0,0,1,26.13,17l3.95,18.16a21.67,21.67,0,0,1-16.8,25.88l-18.16,3.74a22.24,22.24,0,0,1-26.14-17l-3.94-18.16a21.65,21.65,0,0,1,16.8-25.88"/><path class="cls-9" d="M177.4,606.09c10.95-.85,21.92-1.43,32.88-2-3-17-5.79-34-8.78-50.93q-12.85,1.27-25.72,2.52c.72,16.8,1.23,33.6,1.62,50.41"/><path class="cls-9" d="M217.81,569.32l-5.57,1.15c-12.56,2.59-37.06-3-39.79-15.55l-2.56-11.8a22.94,22.94,0,0,1,17.8-27.42l5.57-1.15A23.55,23.55,0,0,1,221,532.6l2.56,11.8c2.73,12.55,6.86,22.34-5.7,24.92"/><path class="cls-8" d="M193.86,532.2l20.56.75a12,12,0,0,0,12.48-11.69,12.32,12.32,0,0,0-11.85-12.58l-20.56-.74A12,12,0,0,0,182,519.63a12.31,12.31,0,0,0,11.86,12.57"/><path class="cls-8" d="M177.5,539.76l5.48-3a12,12,0,0,0,4.66-16.48,12.28,12.28,0,0,0-16.58-4.82l-5.47,3a12,12,0,0,0-4.66,16.47,12.27,12.27,0,0,0,16.57,4.83"/><path class="cls-9" d="M179.27,550c1.43,6.49-2.64,11.62-8.7,12.42a12.32,12.32,0,0,1-13.72-9.4c-1.45-6.47,2.65-11.61,8.71-12.42a12.29,12.29,0,0,1,13.71,9.4"/><path class="cls-9" d="M330.05,600.87l5.93,6,5.94,6L275.38,661l-31.11-14.06c-9.73-4.83-17.28-9.52-15.69-19.26a16.64,16.64,0,0,1,20.92-13.24l27.15,19.73,53.4-33.29Z"/><path class="cls-10" d="M348.7,589.41a8.54,8.54,0,0,1,1.47,11.65l-7.38,10a8.54,8.54,0,0,1-12.3,1.54l-1.05-.86a8.54,8.54,0,0,1-.87-12.37l8.43-9.18a8.52,8.52,0,0,1,11.7-.82"/><path class="cls-10" d="M335.37,595.24a2.2,2.2,0,0,1-.32,3l-2.43,2.07c-1,.82-5.08,4.73-5.84,3.73l-.21-.28c-.77-1,2.14-6.49,3.18-7.2l2.64-1.8a2.2,2.2,0,0,1,3,.49"/><path class="cls-11" d="M232.1,593.65l34.29,22.78L245,648c-1.15,1.7-3.73,2-5.76.63l-29.52-21.14c-6.56-5.92-9.89-13.1-5.25-20l6.64-9.79a15.21,15.21,0,0,1,21-4.07"/><path class="cls-11" d="M143.29,702.42H245.87L242.71,612c-.9-5.5-2.44-24.6-18.85-24.15l-68.21,3.06c-6.85.46-14.77,10.12-14.44,18.79l2.08,92.69Z"/><path class="cls-9" d="M163.4,677.28l-11.58-30.87c-2.62-9.67,3.35-19.39,12.89-21s18.7,5.75,19.43,15.83l7.26,27a15.07,15.07,0,0,1-7.69,17.55c-7.77,3.79-17.16-.16-20.31-8.54"/><path class="cls-11" d="M137.71,612.51l11.81,41.33,36-10.13c1.93-.54,2.95-2.9,2.27-5.27l-10.58-37c-2.1-7.36-12.25-12.35-24.85-9.46s-16.73,13.21-14.63,20.57"/><path class="cls-12" d="M598.33,622a50,50,0,0,0,20.31-67.7,22.31,22.31,0,0,1,39.29-21.15,94.65,94.65,0,0,1-38.45,128.14l-223,120.06a94.67,94.67,0,0,1-104.62-10A22.31,22.31,0,0,1,320,736.81a50,50,0,0,0,55.3,5.27L598.33,622Zm-141.5-88-150,80.78a94.28,94.28,0,0,0-44.08,51.06,22.31,22.31,0,1,0,42,15.19,49.76,49.76,0,0,1,23.28-27L478,573.3A22.31,22.31,0,1,0,456.83,534Z"/><path class="cls-12" d="M547.15,485.38l223-120.06a94.65,94.65,0,0,1,104.62,10,22.31,22.31,0,1,1-28.17,34.6,50,50,0,0,0-55.3-5.27l-223,120.06A50,50,0,0,0,548,592.36a22.31,22.31,0,0,1-39.28,21.16,94.63,94.63,0,0,1,38.44-128.14Zm162.66,127.3,150-80.78a94.23,94.23,0,0,0,44.08-51.07,22.31,22.31,0,1,0-42-15.18,49.74,49.74,0,0,1-23.27,27l-150,80.77a22.31,22.31,0,0,0,21.16,39.29Z"/><path class="cls-13" d="M350.67,683.58a20.18,20.18,0,1,1-25.29,13.25,20.19,20.19,0,0,1,25.29-13.25Z"/><path class="cls-13" d="M827.07,426.91a20.19,20.19,0,1,1-25.29,13.25,20.21,20.21,0,0,1,25.29-13.25Z"/><path class="cls-14" d="M853.21,357.38,842.35,369.6l49.3,63.47,41.91,28.13a16.6,16.6,0,1,0,20.67-25.82l-52-26.57L855.76,359.9Z"/><path class="cls-14" d="M829.28,349.77a8.74,8.74,0,0,0,1,12l9.49,8.54a8.73,8.73,0,0,0,12.65-1l.88-1.09a8.75,8.75,0,0,0-1.71-12.58l-10.36-7.45a8.72,8.72,0,0,0-11.91,1.61"/><path class="cls-15" d="M957.45,476.12l-25.24-14.93,17.48-26.82c1.1-1.68,3.6-2,5.6-.69l25,13.82a18.3,18.3,0,1,1-22.81,28.62"/><path class="cls-16" d="M1039.65,376.91l-6.57,3.94a10.66,10.66,0,1,1-10.95-18.29l6.58-3.93a10.65,10.65,0,1,1,10.94,18.28"/><path class="cls-16" d="M1028.8,444.56l-64.45-6.68a3.58,3.58,0,0,1-3.19-3.92l5.39-52a30.15,30.15,0,0,1,33.08-26.87l11.61,1.2a30.15,30.15,0,0,1,26.87,33.08l-5.39,52a3.58,3.58,0,0,1-3.92,3.18"/><path class="cls-14" d="M1012,461.61c-10.72-1-21.46-1.73-32.2-2.46,3-16.56,5.82-33.17,8.83-49.74q12.58,1.45,25.18,2.87-1.17,24.66-1.81,49.33"/><path class="cls-14" d="M977.79,424.86l5.54.58c12.51,1.29,35.75-6.54,37-19l1.22-11.75a22.77,22.77,0,0,0-20.3-25l-5.55-.57a22.75,22.75,0,0,0-25,20.28l-1.22,11.75c-1.3,12.5-4.25,22.44,8.26,23.73"/><path class="cls-14" d="M1013.2,402.22a9.83,9.83,0,0,0,9.81,11.25A11.9,11.9,0,0,0,1035.35,403c.7-6.45-3.84-11.06-9.82-11.26a11.88,11.88,0,0,0-12.33,10.5"/><path class="cls-16" d="M987.84,383.12l-6.7,3.73a10.65,10.65,0,0,1-10.38-18.61l6.7-3.73a10.65,10.65,0,0,1,10.38,18.61"/><path class="cls-16" d="M999.28,388.81,993.35,384a10.65,10.65,0,0,1,13.51-16.48l5.93,4.86a10.65,10.65,0,0,1-13.51,16.48"/><path class="cls-16" d="M1010.6,393.76l1.64-12.47a6.61,6.61,0,0,1,7.41-5.69h0a6.61,6.61,0,0,1,5.68,7.41l-1.64,12.47a6.6,6.6,0,0,1-7.41,5.68h0a6.6,6.6,0,0,1-5.69-7.41"/><polygon class="cls-15" points="1046.66 552.78 952.98 551.57 962.17 505.6 959.26 437.05 1040.37 438.1 1037.17 506.57 1046.66 552.78 1046.66 552.78"/><path class="cls-14" d="M964.9,817.49l.15,38.76-8.39.16-8.4.17-1.39-35.79c6-.87,12.08-1.88,18-3.3"/><path class="cls-14" d="M907.4,867.19l57-1.1.7-9.84-16.79.33s-40.4,4.12-40.86,10.61"/><path class="cls-17" d="M965.41,851l-1.07,15.05-57.76,1.12c.94-13.28,41.76-15.84,41.76-15.84l17.07-.33Z"/><path class="cls-6" d="M939.87,831.81l13-2.67,13-2.66,6.24-138.39s33.46-84.06,36-145H950.2L928.46,682.76l11.41,149Z"/><path class="cls-14" d="M1028.29,814.65l4.83,39.46-8.27.41-8.26.41-5.69-36.39c5.85-1.06,11.69-2.26,17.39-3.89"/><path class="cls-14" d="M977.55,866.91l56.06-2.77-.49-10-16.53.82s-39.37,5.36-39,12"/><path class="cls-17" d="M1032.84,848.79l.76,15.35L976.74,867c-.67-13.53,39.3-17.33,39.3-17.33l16.8-.83Z"/><path class="cls-7" d="M1008.57,833.82l12.73-2.68,12.73-2.69L1026.9,689s25.35-84.45,22-145.82H991L982.75,683.6l25.82,150.22Z"/><path class="cls-14" d="M1038.93,559.15l8.18,1.3,8.17,1.3L1106.76,509l-39.39-43.92a16.4,16.4,0,1,0-24.44,21.61l30.46,23.61-34.46,48.86Z"/><path class="cls-14" d="M1037.93,583.32a8.74,8.74,0,0,0,11.12-4.56l5.24-11.64a8.74,8.74,0,0,0-4.83-11.74l-1.3-.5a8.73,8.73,0,0,0-11.46,5.45l-3.94,12.14a8.74,8.74,0,0,0,5.17,10.85"/><path class="cls-15" d="M1023.83,469.91l22,19,22.33-22.48a3.33,3.33,0,0,0-.16-4.67l-19.43-19.58a13.82,13.82,0,0,0-20.33.78l-6.18,7.27a13.79,13.79,0,0,0,1.79,19.64"/><path class="cls-9" d="M183,664.22l67.86,5.33,2.73,9.8,2.73,9.8-77.73.36a12.57,12.57,0,0,1-11.13-14.89A13.43,13.43,0,0,1,183,664.22"/><path class="cls-9" d="M281.53,687.92a11.06,11.06,0,0,1-13.45,6.76l-15.44-4.34a10.68,10.68,0,0,1-7.35-13.84l.58-1.61a11.08,11.08,0,0,1,14.58-6.37l14.87,6a10.64,10.64,0,0,1,6.21,13.44"/><line class="cls-18" x1="560.39" y1="440.23" x2="681.22" y2="377.11"/><line class="cls-18" x1="706.08" y1="364.5" x2="746.45" y2="342.73"/><line class="cls-18" x1="409.12" y1="810.31" x2="529.95" y2="747.19"/><line class="cls-18" x1="560.39" y1="731.37" x2="593.93" y2="714.05"/><line class="cls-19" x1="302.34" y1="457.07" x2="339.67" y2="437.87"/><line class="cls-19" x1="813.23" y1="681.05" x2="850.56" y2="661.85"/><line class="cls-20" x1="417.48" y1="342.98" x2="498.84" y2="301.13"/><line class="cls-21" x1="542.33" y1="886.94" x2="617.42" y2="848.32"/><path class="cls-22" d="M358.2,850.74a56.54,56.54,0,0,0-23.49,5.09l-46.12-27,21,49.14a56.9,56.9,0,1,0,48.58-27.28Z"/><polyline class="cls-23" points="380.58 887.41 347.53 920.46 332.9 905.83"/><path class="cls-22" d="M869,299.3a56.7,56.7,0,0,0,23.5-5.08l46.12,26.95-21-49.15A56.9,56.9,0,1,0,869,299.3Z"/><polygon class="cls-24" points="867.75 215.31 875.99 231.99 894.4 234.67 881.08 247.65 884.22 265.99 867.75 257.33 851.29 265.99 854.43 247.65 841.11 234.67 859.52 231.99 867.75 215.31"/><g class="cls-25"><path class="cls-26" d="M627.71,524.11a22.31,22.31,0,0,0-9.07,30.21A50,50,0,0,1,598.33,622l-223,120.06a50,50,0,0,1-55.3-5.27,22.31,22.31,0,0,0-28.17,34.6,94.67,94.67,0,0,0,104.62,10l223-120.06a94.65,94.65,0,0,0,38.45-128.14A22.32,22.32,0,0,0,627.71,524.11Z"/><path class="cls-27" d="M304.68,681a49.76,49.76,0,0,1,23.28-27L478,573.3A22.31,22.31,0,1,0,456.83,534l-106.42,57.3A8.53,8.53,0,0,0,337,590.23l-3.85,4.2a2.41,2.41,0,0,0-.76.32l-2.64,1.8c-.9.61-3.19,4.79-3.3,6.56l-12.89,8-6.76,3.64a95.3,95.3,0,0,0-14.47,9.59l-15.68,9.78-14.92-10.85,4.66-6.88-26.92-17.88c-2.48-5.75-7-10.91-15.61-10.67l-16.28.73q-1.5-8.77-3-17.53a35.47,35.47,0,0,0,7.65-.61l5.57-1.15c12.56-2.58,8.43-12.37,5.7-24.92L221,532.6c-.09-.39-.18-.76-.28-1.14a11.93,11.93,0,0,0,6.23-10.2,12.32,12.32,0,0,0-11.85-12.58l-5.72-.2a22.1,22.1,0,0,0-19-5l-18.16,3.74a21.65,21.65,0,0,0-16.8,25.88L158,545.25a10.21,10.21,0,0,0-1.14,7.72,12.09,12.09,0,0,0,8.08,8.85,22.35,22.35,0,0,0,11.35,6.38q.41,10.89.7,21.78l-21.33,1a10.28,10.28,0,0,0-3.93,1.17c-12.09,3.09-16.07,13.17-14,20.4l3.87,13.54,1.71,76.37h1l-5.87,148.25-.22,1-8.39,131.89h4.69l-2.39,12.14h0l-.77,4.07-.28,1.42h0l-1.95,10.32,57.14,3c2.79-13.87-37.16-17.93-37.16-17.93H149l3-13.06H175l18.87-170.36L194,806l.07,10.51,7.4,167.16,13.31-.19.7,12.92h0l-1.85,15.87,57.34,1.37c1.79-13.93-38.44-16.81-38.44-16.81h-.19l-.25-13.58,14.41-.21,1.16-135.65-2.68-145h.92l-.46-13.22,4.55,0a11.74,11.74,0,0,0,2.68,1.16l15.44,4.34a11.18,11.18,0,0,0,7.46-.48c.19.08.37.16.57.23A22.32,22.32,0,0,0,304.68,681Zm-54.49-11.55-5.49-.43-.7-20.14a3.35,3.35,0,0,0,1-.94l.37-.55,21.1,9.54a96,96,0,0,0-3.76,8.88,22.37,22.37,0,0,0-.89,3.22l-1.38-.55A11.23,11.23,0,0,0,250.19,669.49Z"/><path class="cls-28" d="M890.53,452.26A22.33,22.33,0,0,0,862,465.65a49.74,49.74,0,0,1-23.27,27l-150,80.77a22.31,22.31,0,0,0,21.16,39.29l150-80.78a94.23,94.23,0,0,0,44.08-51.07A22.33,22.33,0,0,0,890.53,452.26Z"/><path class="cls-29" d="M351.41,681.19a22.69,22.69,0,1,0,13.33,11.13A22.53,22.53,0,0,0,351.41,681.19Zm10.12,26.93a17.69,17.69,0,1,1-33.76-10.55,17.71,17.71,0,0,1,16.86-12.42,17.7,17.7,0,0,1,16.9,23Z"/><path class="cls-30" d="M821.07,468.88a22.73,22.73,0,1,0-6.79-1.05A22.59,22.59,0,0,0,821.07,468.88Zm-16.9-28A17.67,17.67,0,0,1,836.71,438a17.68,17.68,0,0,1-20.93,25.08A17.7,17.7,0,0,1,804.17,440.91Z"/><path class="cls-31" d="M1106.76,509l-38.38-42.8a3.4,3.4,0,0,0-.4-4.39l-19.43-19.58a13.7,13.7,0,0,0-8.18-4v-.15l-7.3-.1,5-48.63a30.09,30.09,0,0,0-.9-11l2.44-1.46a10.65,10.65,0,1,0-10.94-18.28l-4.07,2.43a30,30,0,0,0-13.4-4.77l-11.61-1.2A30.09,30.09,0,0,0,972,367.54l-1.26.7a10.65,10.65,0,0,0-4.26,14.2L961.16,434a3.58,3.58,0,0,0,1.3,3.13h-1l-6.15-3.4a4.3,4.3,0,0,0-4.73-.17l-48.35-24.7-19.69-20.74a22.22,22.22,0,0,0-7.76-12.79,93.94,93.94,0,0,0-12.59-8.64l-6.41-6.74-2-2a8.8,8.8,0,0,0-2.19-2.29l-10.36-7.45a8.72,8.72,0,0,0-11.91,1.61h0a8.74,8.74,0,0,0-1.92,5.08,94.11,94.11,0,0,0-57.22,10.47l-223,120.06h0a94.63,94.63,0,0,0-38.44,128.14A22.31,22.31,0,0,0,548,592.36a50,50,0,0,1,20.31-67.69l223-120.06a50,50,0,0,1,55.3,5.27,22.31,22.31,0,0,0,27.46.53l17.6,22.66,41,27.5-.41.62,25.24,14.93A18.12,18.12,0,0,0,961,478.4l1.15,27.2-7.5,37.54H950.2L928.46,682.76l11.41,149,7.37-1.51.82,21.09c-3.59.25-40.59,3.19-41.48,15.82l18.09-.35,39.68-.77.7-9.84h0v-.14l.36-5.07H965l-.1-24.39.92-.18,6.24-138.39s5.64-14.17,12.46-35.07l-1.8,30.58,25.82,150.22,4.57-1,2.62,16.79c-3.51.37-39.65,4.42-39,17.3l.81,0h0l56.06-2.77-.49-10h0l0-.14-.26-5.18-.37,0-2.39-19.53,4-.83L1026.9,689s16.51-55,21.14-108.51a8.69,8.69,0,0,0,1-1.69l5.24-11.64a8.65,8.65,0,0,0,.56-5.44l.43.07ZM1049,544.85c0-.57,0-1.14-.08-1.71h-4.26l-7.51-36.57,1.13-24.12,3.33,2.89c.41.46.84.91,1.3,1.34l2.34,1.81.54.46,0,0,27.56,21.36Z"/><path class="cls-32" d="M560.4,445.24a5.05,5.05,0,0,0,2.31-.57l120.82-63.13a5,5,0,1,0-4.63-8.86L558.08,435.8a5,5,0,0,0,2.32,9.44Z"/><path class="cls-33" d="M706.08,369.5a4.94,4.94,0,0,0,2.37-.6l40.37-21.77a5,5,0,1,0-4.74-8.8L703.7,360.1a5,5,0,0,0,2.38,9.4Z"/><path class="cls-34" d="M527.63,742.76,406.8,805.88a5,5,0,0,0,2.32,9.43,4.93,4.93,0,0,0,2.31-.57l120.83-63.12a5,5,0,1,0-4.63-8.86Z"/><path class="cls-35" d="M560.39,736.37a5.12,5.12,0,0,0,2.3-.55l33.53-17.33a5,5,0,1,0-4.59-8.88L558.1,726.93a5,5,0,0,0,2.29,9.44Z"/><rect class="cls-36" x="300.02" y="445.61" width="41.98" height="3.72" transform="translate(-169.11 196.36) rotate(-27.22)"/><rect class="cls-37" x="810.91" y="669.59" width="41.98" height="3.72" transform="translate(-214.99 454.82) rotate(-27.22)"/><rect class="cls-38" x="412.41" y="318" width="91.49" height="8.12" transform="translate(-96.57 245.19) rotate(-27.22)"/><rect class="cls-39" x="537.65" y="863.88" width="84.45" height="7.49" transform="translate(-332.58 361.21) rotate(-27.21)"/><path class="cls-40" d="M358.2,850.74a56.54,56.54,0,0,0-23.49,5.09l-46.12-27,21,49.14a56.9,56.9,0,1,0,48.58-27.28Z"/><path class="cls-41" d="M869,299.3a56.7,56.7,0,0,0,23.5-5.08l46.12,26.95-21-49.15A56.9,56.9,0,1,0,869,299.3Z"/></g></g></g></svg>